<mxfile host="app.diagrams.net" agent="Mozilla/5.0 (Windows NT 10.0; Win64; x64) AppleWebKit/537.36 (KHTML, like Gecko) Chrome/127.0.0.0 Safari/537.36" version="24.7.6">
  <diagram name="Page-1" id="m4iovesV7Pqjzl6nrNxr">
    <mxGraphModel dx="1744" dy="924" grid="1" gridSize="10" guides="1" tooltips="1" connect="1" arrows="1" fold="1" page="1" pageScale="1" pageWidth="850" pageHeight="1100" math="0" shadow="0">
      <root>
        <mxCell id="0" />
        <mxCell id="1" parent="0" />
        <mxCell id="YajR3gbY2ObetSgleA5Y-1" value="&lt;font style=&quot;font-size: 16px;&quot;&gt;&lt;b&gt;Mux 4to16&lt;/b&gt;&lt;/font&gt;" style="rounded=0;whiteSpace=wrap;html=1;fillColor=#f5f5f5;fontColor=#333333;strokeColor=#666666;" vertex="1" parent="1">
          <mxGeometry x="425" y="110" width="180" height="350" as="geometry" />
        </mxCell>
        <mxCell id="YajR3gbY2ObetSgleA5Y-2" value="&lt;b&gt;ALU_OUT&lt;/b&gt;" style="rounded=0;whiteSpace=wrap;html=1;fillColor=#f5f5f5;fontColor=#333333;strokeColor=#666666;" vertex="1" parent="1">
          <mxGeometry x="670" y="215" width="70" height="100" as="geometry" />
        </mxCell>
        <mxCell id="YajR3gbY2ObetSgleA5Y-3" value="" style="endArrow=none;html=1;rounded=0;entryX=-0.01;entryY=0.545;entryDx=0;entryDy=0;entryPerimeter=0;exitX=0.999;exitY=0.42;exitDx=0;exitDy=0;exitPerimeter=0;" edge="1" parent="1">
          <mxGeometry width="50" height="50" relative="1" as="geometry">
            <mxPoint x="605" y="235.09000000000003" as="sourcePoint" />
            <mxPoint x="669.4799999999999" y="234.89" as="targetPoint" />
          </mxGeometry>
        </mxCell>
        <mxCell id="YajR3gbY2ObetSgleA5Y-5" value="" style="triangle;whiteSpace=wrap;html=1;" vertex="1" parent="1">
          <mxGeometry x="670" y="290" width="10" height="10" as="geometry" />
        </mxCell>
        <mxCell id="YajR3gbY2ObetSgleA5Y-6" value="&lt;font style=&quot;font-size: 11px;&quot;&gt;&lt;b&gt;CLK&lt;/b&gt;&lt;/font&gt;" style="text;html=1;align=center;verticalAlign=middle;resizable=0;points=[];autosize=1;" vertex="1" parent="1">
          <mxGeometry x="605" y="280" width="50" height="30" as="geometry" />
        </mxCell>
        <mxCell id="YajR3gbY2ObetSgleA5Y-7" value="" style="endArrow=none;html=1;rounded=0;entryX=0;entryY=0.5;entryDx=0;entryDy=0;" edge="1" parent="1" source="YajR3gbY2ObetSgleA5Y-6" target="YajR3gbY2ObetSgleA5Y-5">
          <mxGeometry width="50" height="50" relative="1" as="geometry">
            <mxPoint x="640" y="320" as="sourcePoint" />
            <mxPoint x="660" y="300" as="targetPoint" />
          </mxGeometry>
        </mxCell>
        <mxCell id="YajR3gbY2ObetSgleA5Y-8" value="&lt;b&gt;D&lt;/b&gt;" style="text;html=1;align=center;verticalAlign=middle;resizable=0;points=[];autosize=1;strokeColor=none;fillColor=none;" vertex="1" parent="1">
          <mxGeometry x="660" y="220" width="30" height="30" as="geometry" />
        </mxCell>
        <mxCell id="YajR3gbY2ObetSgleA5Y-9" value="&lt;b&gt;Q&lt;/b&gt;" style="text;html=1;align=center;verticalAlign=middle;resizable=0;points=[];autosize=1;strokeColor=none;fillColor=none;" vertex="1" parent="1">
          <mxGeometry x="720" y="220" width="30" height="30" as="geometry" />
        </mxCell>
        <mxCell id="YajR3gbY2ObetSgleA5Y-10" value="" style="endArrow=none;html=1;rounded=0;" edge="1" parent="1">
          <mxGeometry width="50" height="50" relative="1" as="geometry">
            <mxPoint x="519.71" y="500" as="sourcePoint" />
            <mxPoint x="519.71" y="460" as="targetPoint" />
          </mxGeometry>
        </mxCell>
        <mxCell id="YajR3gbY2ObetSgleA5Y-11" value="&lt;b&gt;ALU_FUN [3:0]&lt;/b&gt;" style="text;html=1;align=center;verticalAlign=middle;resizable=0;points=[];autosize=1;strokeColor=none;fillColor=none;" vertex="1" parent="1">
          <mxGeometry x="465" y="500" width="110" height="30" as="geometry" />
        </mxCell>
        <mxCell id="YajR3gbY2ObetSgleA5Y-15" value="&lt;b&gt;Sel&lt;/b&gt;" style="text;html=1;align=center;verticalAlign=middle;resizable=0;points=[];autosize=1;strokeColor=none;fillColor=none;" vertex="1" parent="1">
          <mxGeometry x="500" y="430" width="40" height="30" as="geometry" />
        </mxCell>
        <mxCell id="YajR3gbY2ObetSgleA5Y-16" value="&lt;font style=&quot;font-size: 12px;&quot;&gt;0&lt;/font&gt;" style="text;html=1;align=center;verticalAlign=middle;resizable=0;points=[];autosize=1;strokeColor=none;fillColor=none;" vertex="1" parent="1">
          <mxGeometry x="425" y="110" width="30" height="30" as="geometry" />
        </mxCell>
        <mxCell id="YajR3gbY2ObetSgleA5Y-17" value="1" style="text;html=1;align=center;verticalAlign=middle;resizable=0;points=[];autosize=1;strokeColor=none;fillColor=none;" vertex="1" parent="1">
          <mxGeometry x="425" y="130" width="30" height="30" as="geometry" />
        </mxCell>
        <mxCell id="YajR3gbY2ObetSgleA5Y-18" value="2" style="text;html=1;align=center;verticalAlign=middle;resizable=0;points=[];autosize=1;strokeColor=none;fillColor=none;" vertex="1" parent="1">
          <mxGeometry x="425" y="150" width="30" height="30" as="geometry" />
        </mxCell>
        <mxCell id="YajR3gbY2ObetSgleA5Y-19" value="3" style="text;html=1;align=center;verticalAlign=middle;resizable=0;points=[];autosize=1;strokeColor=none;fillColor=none;" vertex="1" parent="1">
          <mxGeometry x="425" y="170" width="30" height="30" as="geometry" />
        </mxCell>
        <mxCell id="YajR3gbY2ObetSgleA5Y-20" value="4" style="text;html=1;align=center;verticalAlign=middle;resizable=0;points=[];autosize=1;strokeColor=none;fillColor=none;" vertex="1" parent="1">
          <mxGeometry x="425" y="190" width="30" height="30" as="geometry" />
        </mxCell>
        <mxCell id="YajR3gbY2ObetSgleA5Y-21" value="5" style="text;html=1;align=center;verticalAlign=middle;resizable=0;points=[];autosize=1;strokeColor=none;fillColor=none;" vertex="1" parent="1">
          <mxGeometry x="425" y="210" width="30" height="30" as="geometry" />
        </mxCell>
        <mxCell id="YajR3gbY2ObetSgleA5Y-22" value="6" style="text;html=1;align=center;verticalAlign=middle;resizable=0;points=[];autosize=1;strokeColor=none;fillColor=none;" vertex="1" parent="1">
          <mxGeometry x="425" y="230" width="30" height="30" as="geometry" />
        </mxCell>
        <mxCell id="YajR3gbY2ObetSgleA5Y-23" value="7" style="text;html=1;align=center;verticalAlign=middle;resizable=0;points=[];autosize=1;strokeColor=none;fillColor=none;" vertex="1" parent="1">
          <mxGeometry x="425" y="250" width="30" height="30" as="geometry" />
        </mxCell>
        <mxCell id="YajR3gbY2ObetSgleA5Y-24" value="8" style="text;html=1;align=center;verticalAlign=middle;resizable=0;points=[];autosize=1;strokeColor=none;fillColor=none;" vertex="1" parent="1">
          <mxGeometry x="425" y="270" width="30" height="30" as="geometry" />
        </mxCell>
        <mxCell id="YajR3gbY2ObetSgleA5Y-25" value="9" style="text;html=1;align=center;verticalAlign=middle;resizable=0;points=[];autosize=1;strokeColor=none;fillColor=none;" vertex="1" parent="1">
          <mxGeometry x="425" y="290" width="30" height="30" as="geometry" />
        </mxCell>
        <mxCell id="YajR3gbY2ObetSgleA5Y-26" value="10" style="text;html=1;align=center;verticalAlign=middle;resizable=0;points=[];autosize=1;strokeColor=none;fillColor=none;" vertex="1" parent="1">
          <mxGeometry x="420" y="310" width="40" height="30" as="geometry" />
        </mxCell>
        <mxCell id="YajR3gbY2ObetSgleA5Y-27" value="11" style="text;html=1;align=center;verticalAlign=middle;resizable=0;points=[];autosize=1;strokeColor=none;fillColor=none;" vertex="1" parent="1">
          <mxGeometry x="420" y="330" width="40" height="30" as="geometry" />
        </mxCell>
        <mxCell id="YajR3gbY2ObetSgleA5Y-28" value="12" style="text;html=1;align=center;verticalAlign=middle;resizable=0;points=[];autosize=1;strokeColor=none;fillColor=none;" vertex="1" parent="1">
          <mxGeometry x="420" y="350" width="40" height="30" as="geometry" />
        </mxCell>
        <mxCell id="YajR3gbY2ObetSgleA5Y-29" value="13" style="text;html=1;align=center;verticalAlign=middle;resizable=0;points=[];autosize=1;strokeColor=none;fillColor=none;" vertex="1" parent="1">
          <mxGeometry x="420" y="370" width="40" height="30" as="geometry" />
        </mxCell>
        <mxCell id="YajR3gbY2ObetSgleA5Y-30" value="14" style="text;html=1;align=center;verticalAlign=middle;resizable=0;points=[];autosize=1;strokeColor=none;fillColor=none;" vertex="1" parent="1">
          <mxGeometry x="420" y="390" width="40" height="30" as="geometry" />
        </mxCell>
        <mxCell id="YajR3gbY2ObetSgleA5Y-31" value="15" style="text;html=1;align=center;verticalAlign=middle;resizable=0;points=[];autosize=1;strokeColor=none;fillColor=none;" vertex="1" parent="1">
          <mxGeometry x="420" y="410" width="40" height="30" as="geometry" />
        </mxCell>
        <mxCell id="YajR3gbY2ObetSgleA5Y-35" value="" style="endArrow=none;html=1;rounded=0;" edge="1" parent="1">
          <mxGeometry width="50" height="50" relative="1" as="geometry">
            <mxPoint x="400" y="424.79999999999995" as="sourcePoint" />
            <mxPoint x="424.99636363636375" y="424.79999999999995" as="targetPoint" />
          </mxGeometry>
        </mxCell>
        <mxCell id="YajR3gbY2ObetSgleA5Y-36" value="0" style="text;html=1;align=center;verticalAlign=middle;resizable=0;points=[];autosize=1;strokeColor=none;fillColor=none;" vertex="1" parent="1">
          <mxGeometry x="375" y="410" width="30" height="30" as="geometry" />
        </mxCell>
        <mxCell id="YajR3gbY2ObetSgleA5Y-37" value="Adder" style="rounded=0;whiteSpace=wrap;html=1;" vertex="1" parent="1">
          <mxGeometry x="270" y="10" width="40" height="30" as="geometry" />
        </mxCell>
        <mxCell id="YajR3gbY2ObetSgleA5Y-38" value="" style="endArrow=none;html=1;rounded=0;" edge="1" parent="1">
          <mxGeometry width="50" height="50" relative="1" as="geometry">
            <mxPoint x="240" y="20" as="sourcePoint" />
            <mxPoint x="270" y="20" as="targetPoint" />
          </mxGeometry>
        </mxCell>
        <mxCell id="YajR3gbY2ObetSgleA5Y-40" value="" style="endArrow=none;html=1;rounded=0;" edge="1" parent="1">
          <mxGeometry width="50" height="50" relative="1" as="geometry">
            <mxPoint x="240" y="30" as="sourcePoint" />
            <mxPoint x="270" y="30" as="targetPoint" />
          </mxGeometry>
        </mxCell>
        <mxCell id="YajR3gbY2ObetSgleA5Y-44" value="A" style="text;html=1;align=center;verticalAlign=middle;resizable=0;points=[];autosize=1;strokeColor=none;fillColor=none;" vertex="1" parent="1">
          <mxGeometry x="210" width="30" height="30" as="geometry" />
        </mxCell>
        <mxCell id="YajR3gbY2ObetSgleA5Y-45" value="B" style="text;html=1;align=center;verticalAlign=middle;resizable=0;points=[];autosize=1;strokeColor=none;fillColor=none;" vertex="1" parent="1">
          <mxGeometry x="210" y="18" width="30" height="30" as="geometry" />
        </mxCell>
        <mxCell id="YajR3gbY2ObetSgleA5Y-51" value="Mul" style="rounded=0;whiteSpace=wrap;html=1;" vertex="1" parent="1">
          <mxGeometry x="270" y="88" width="40" height="30" as="geometry" />
        </mxCell>
        <mxCell id="YajR3gbY2ObetSgleA5Y-52" value="" style="endArrow=none;html=1;rounded=0;" edge="1" parent="1">
          <mxGeometry width="50" height="50" relative="1" as="geometry">
            <mxPoint x="240" y="98" as="sourcePoint" />
            <mxPoint x="270" y="98" as="targetPoint" />
          </mxGeometry>
        </mxCell>
        <mxCell id="YajR3gbY2ObetSgleA5Y-53" value="" style="endArrow=none;html=1;rounded=0;" edge="1" parent="1">
          <mxGeometry width="50" height="50" relative="1" as="geometry">
            <mxPoint x="240" y="108" as="sourcePoint" />
            <mxPoint x="270" y="108" as="targetPoint" />
          </mxGeometry>
        </mxCell>
        <mxCell id="YajR3gbY2ObetSgleA5Y-54" value="A" style="text;html=1;align=center;verticalAlign=middle;resizable=0;points=[];autosize=1;strokeColor=none;fillColor=none;" vertex="1" parent="1">
          <mxGeometry x="210" y="78" width="30" height="30" as="geometry" />
        </mxCell>
        <mxCell id="YajR3gbY2ObetSgleA5Y-55" value="B" style="text;html=1;align=center;verticalAlign=middle;resizable=0;points=[];autosize=1;strokeColor=none;fillColor=none;" vertex="1" parent="1">
          <mxGeometry x="210" y="96" width="30" height="30" as="geometry" />
        </mxCell>
        <mxCell id="YajR3gbY2ObetSgleA5Y-56" value="" style="endArrow=none;html=1;rounded=0;" edge="1" parent="1">
          <mxGeometry width="50" height="50" relative="1" as="geometry">
            <mxPoint x="310" y="30" as="sourcePoint" />
            <mxPoint x="420" y="120" as="targetPoint" />
            <Array as="points">
              <mxPoint x="400" y="30" />
              <mxPoint x="400" y="120" />
            </Array>
          </mxGeometry>
        </mxCell>
        <mxCell id="YajR3gbY2ObetSgleA5Y-57" value="" style="endArrow=none;html=1;rounded=0;exitX=1.004;exitY=0.34;exitDx=0;exitDy=0;exitPerimeter=0;" edge="1" parent="1" source="YajR3gbY2ObetSgleA5Y-37">
          <mxGeometry width="50" height="50" relative="1" as="geometry">
            <mxPoint x="320" y="14.829999999999998" as="sourcePoint" />
            <mxPoint x="340" y="20" as="targetPoint" />
          </mxGeometry>
        </mxCell>
        <mxCell id="YajR3gbY2ObetSgleA5Y-58" value="Sub" style="rounded=0;whiteSpace=wrap;html=1;" vertex="1" parent="1">
          <mxGeometry x="270" y="50" width="40" height="30" as="geometry" />
        </mxCell>
        <mxCell id="YajR3gbY2ObetSgleA5Y-59" value="" style="endArrow=none;html=1;rounded=0;" edge="1" parent="1">
          <mxGeometry width="50" height="50" relative="1" as="geometry">
            <mxPoint x="240" y="60" as="sourcePoint" />
            <mxPoint x="270" y="60" as="targetPoint" />
          </mxGeometry>
        </mxCell>
        <mxCell id="YajR3gbY2ObetSgleA5Y-60" value="" style="endArrow=none;html=1;rounded=0;" edge="1" parent="1">
          <mxGeometry width="50" height="50" relative="1" as="geometry">
            <mxPoint x="240" y="70" as="sourcePoint" />
            <mxPoint x="270" y="70" as="targetPoint" />
          </mxGeometry>
        </mxCell>
        <mxCell id="YajR3gbY2ObetSgleA5Y-61" value="A" style="text;html=1;align=center;verticalAlign=middle;resizable=0;points=[];autosize=1;strokeColor=none;fillColor=none;" vertex="1" parent="1">
          <mxGeometry x="210" y="40" width="30" height="30" as="geometry" />
        </mxCell>
        <mxCell id="YajR3gbY2ObetSgleA5Y-62" value="B" style="text;html=1;align=center;verticalAlign=middle;resizable=0;points=[];autosize=1;strokeColor=none;fillColor=none;" vertex="1" parent="1">
          <mxGeometry x="210" y="58" width="30" height="30" as="geometry" />
        </mxCell>
        <mxCell id="YajR3gbY2ObetSgleA5Y-63" value="" style="endArrow=none;html=1;rounded=0;entryX=-0.014;entryY=0.435;entryDx=0;entryDy=0;entryPerimeter=0;" edge="1" parent="1" target="YajR3gbY2ObetSgleA5Y-17">
          <mxGeometry width="50" height="50" relative="1" as="geometry">
            <mxPoint x="310" y="70" as="sourcePoint" />
            <mxPoint x="340" y="70" as="targetPoint" />
            <Array as="points">
              <mxPoint x="370" y="70" />
              <mxPoint x="370" y="143" />
            </Array>
          </mxGeometry>
        </mxCell>
        <mxCell id="YajR3gbY2ObetSgleA5Y-64" value="" style="endArrow=none;html=1;rounded=0;exitX=1.004;exitY=0.34;exitDx=0;exitDy=0;exitPerimeter=0;" edge="1" parent="1" source="YajR3gbY2ObetSgleA5Y-58">
          <mxGeometry width="50" height="50" relative="1" as="geometry">
            <mxPoint x="320" y="54.83" as="sourcePoint" />
            <mxPoint x="340" y="60" as="targetPoint" />
          </mxGeometry>
        </mxCell>
        <mxCell id="YajR3gbY2ObetSgleA5Y-65" value="&lt;font style=&quot;font-size: 10px;&quot;&gt;Carry_flag&lt;/font&gt;" style="text;html=1;align=center;verticalAlign=middle;resizable=0;points=[];autosize=1;strokeColor=none;fillColor=none;" vertex="1" parent="1">
          <mxGeometry x="335" width="70" height="30" as="geometry" />
        </mxCell>
        <mxCell id="YajR3gbY2ObetSgleA5Y-66" value="&lt;font style=&quot;font-size: 10px;&quot;&gt;Carry_flag&lt;/font&gt;" style="text;html=1;align=center;verticalAlign=middle;resizable=0;points=[];autosize=1;strokeColor=none;fillColor=none;" vertex="1" parent="1">
          <mxGeometry x="335" y="40" width="70" height="30" as="geometry" />
        </mxCell>
        <mxCell id="YajR3gbY2ObetSgleA5Y-69" value="" style="endArrow=none;html=1;rounded=0;entryX=-0.003;entryY=0.498;entryDx=0;entryDy=0;entryPerimeter=0;" edge="1" parent="1" target="YajR3gbY2ObetSgleA5Y-18">
          <mxGeometry width="50" height="50" relative="1" as="geometry">
            <mxPoint x="310" y="107" as="sourcePoint" />
            <mxPoint x="425" y="180" as="targetPoint" />
            <Array as="points">
              <mxPoint x="360" y="107" />
              <mxPoint x="360" y="165" />
            </Array>
          </mxGeometry>
        </mxCell>
        <mxCell id="YajR3gbY2ObetSgleA5Y-70" value="Div" style="rounded=0;whiteSpace=wrap;html=1;" vertex="1" parent="1">
          <mxGeometry x="270" y="128" width="40" height="30" as="geometry" />
        </mxCell>
        <mxCell id="YajR3gbY2ObetSgleA5Y-71" value="" style="endArrow=none;html=1;rounded=0;" edge="1" parent="1">
          <mxGeometry width="50" height="50" relative="1" as="geometry">
            <mxPoint x="240" y="138" as="sourcePoint" />
            <mxPoint x="270" y="138" as="targetPoint" />
          </mxGeometry>
        </mxCell>
        <mxCell id="YajR3gbY2ObetSgleA5Y-72" value="" style="endArrow=none;html=1;rounded=0;" edge="1" parent="1">
          <mxGeometry width="50" height="50" relative="1" as="geometry">
            <mxPoint x="240" y="148" as="sourcePoint" />
            <mxPoint x="270" y="148" as="targetPoint" />
          </mxGeometry>
        </mxCell>
        <mxCell id="YajR3gbY2ObetSgleA5Y-73" value="A" style="text;html=1;align=center;verticalAlign=middle;resizable=0;points=[];autosize=1;strokeColor=none;fillColor=none;" vertex="1" parent="1">
          <mxGeometry x="210" y="118" width="30" height="30" as="geometry" />
        </mxCell>
        <mxCell id="YajR3gbY2ObetSgleA5Y-74" value="B" style="text;html=1;align=center;verticalAlign=middle;resizable=0;points=[];autosize=1;strokeColor=none;fillColor=none;" vertex="1" parent="1">
          <mxGeometry x="210" y="136" width="30" height="30" as="geometry" />
        </mxCell>
        <mxCell id="YajR3gbY2ObetSgleA5Y-75" value="" style="endArrow=none;html=1;rounded=0;entryX=0.009;entryY=0.476;entryDx=0;entryDy=0;entryPerimeter=0;" edge="1" parent="1" target="YajR3gbY2ObetSgleA5Y-19">
          <mxGeometry width="50" height="50" relative="1" as="geometry">
            <mxPoint x="310" y="142" as="sourcePoint" />
            <mxPoint x="425" y="200" as="targetPoint" />
            <Array as="points">
              <mxPoint x="350" y="142" />
              <mxPoint x="350" y="185" />
            </Array>
          </mxGeometry>
        </mxCell>
        <mxCell id="YajR3gbY2ObetSgleA5Y-76" value="" style="endArrow=none;html=1;rounded=0;" edge="1" parent="1">
          <mxGeometry width="50" height="50" relative="1" as="geometry">
            <mxPoint x="740" y="264.86" as="sourcePoint" />
            <mxPoint x="764.9963636363638" y="264.86" as="targetPoint" />
          </mxGeometry>
        </mxCell>
        <mxCell id="YajR3gbY2ObetSgleA5Y-77" value="" style="verticalLabelPosition=bottom;shadow=0;dashed=0;align=center;html=1;verticalAlign=top;shape=mxgraph.electrical.logic_gates.logic_gate;operation=and;" vertex="1" parent="1">
          <mxGeometry x="270" y="175" width="50" height="25" as="geometry" />
        </mxCell>
        <mxCell id="YajR3gbY2ObetSgleA5Y-78" value="A" style="text;html=1;align=center;verticalAlign=middle;resizable=0;points=[];autosize=1;strokeColor=none;fillColor=none;" vertex="1" parent="1">
          <mxGeometry x="240" y="166" width="30" height="30" as="geometry" />
        </mxCell>
        <mxCell id="YajR3gbY2ObetSgleA5Y-79" value="B" style="text;html=1;align=center;verticalAlign=middle;resizable=0;points=[];autosize=1;strokeColor=none;fillColor=none;" vertex="1" parent="1">
          <mxGeometry x="240" y="180" width="30" height="30" as="geometry" />
        </mxCell>
        <mxCell id="YajR3gbY2ObetSgleA5Y-80" value="" style="endArrow=none;html=1;rounded=0;entryX=1;entryY=0.5;entryDx=0;entryDy=0;entryPerimeter=0;exitX=0.005;exitY=0.473;exitDx=0;exitDy=0;exitPerimeter=0;" edge="1" parent="1" source="YajR3gbY2ObetSgleA5Y-20" target="YajR3gbY2ObetSgleA5Y-77">
          <mxGeometry width="50" height="50" relative="1" as="geometry">
            <mxPoint x="400" y="200" as="sourcePoint" />
            <mxPoint x="330" y="190" as="targetPoint" />
            <Array as="points">
              <mxPoint x="320" y="205" />
            </Array>
          </mxGeometry>
        </mxCell>
        <mxCell id="YajR3gbY2ObetSgleA5Y-81" value="" style="verticalLabelPosition=bottom;shadow=0;dashed=0;align=center;html=1;verticalAlign=top;shape=mxgraph.electrical.logic_gates.logic_gate;operation=or;" vertex="1" parent="1">
          <mxGeometry x="275" y="215" width="40" height="20" as="geometry" />
        </mxCell>
        <mxCell id="YajR3gbY2ObetSgleA5Y-82" value="" style="endArrow=none;html=1;rounded=0;entryX=-0.024;entryY=0.527;entryDx=0;entryDy=0;entryPerimeter=0;exitX=1;exitY=0.5;exitDx=0;exitDy=0;exitPerimeter=0;" edge="1" parent="1" source="YajR3gbY2ObetSgleA5Y-81" target="YajR3gbY2ObetSgleA5Y-21">
          <mxGeometry width="50" height="50" relative="1" as="geometry">
            <mxPoint x="320" y="280" as="sourcePoint" />
            <mxPoint x="370" y="230" as="targetPoint" />
          </mxGeometry>
        </mxCell>
        <mxCell id="YajR3gbY2ObetSgleA5Y-83" value="B" style="text;html=1;align=center;verticalAlign=middle;resizable=0;points=[];autosize=1;strokeColor=none;fillColor=none;" vertex="1" parent="1">
          <mxGeometry x="250" y="215" width="30" height="30" as="geometry" />
        </mxCell>
        <mxCell id="YajR3gbY2ObetSgleA5Y-84" value="A" style="text;html=1;align=center;verticalAlign=middle;resizable=0;points=[];autosize=1;strokeColor=none;fillColor=none;" vertex="1" parent="1">
          <mxGeometry x="250" y="200" width="30" height="30" as="geometry" />
        </mxCell>
        <mxCell id="YajR3gbY2ObetSgleA5Y-85" value="" style="verticalLabelPosition=bottom;shadow=0;dashed=0;align=center;html=1;verticalAlign=top;shape=mxgraph.electrical.logic_gates.logic_gate;operation=and;negating=1;negSize=0.15;" vertex="1" parent="1">
          <mxGeometry x="205" y="235" width="35" height="20" as="geometry" />
        </mxCell>
        <mxCell id="YajR3gbY2ObetSgleA5Y-86" value="" style="verticalLabelPosition=bottom;shadow=0;dashed=0;align=center;html=1;verticalAlign=top;shape=mxgraph.electrical.logic_gates.logic_gate;operation=or;negating=1;negSize=0.15;" vertex="1" parent="1">
          <mxGeometry x="275" y="255" width="35" height="20" as="geometry" />
        </mxCell>
        <mxCell id="YajR3gbY2ObetSgleA5Y-87" value="" style="verticalLabelPosition=bottom;shadow=0;dashed=0;align=center;html=1;verticalAlign=top;shape=mxgraph.electrical.logic_gates.logic_gate;operation=xor;" vertex="1" parent="1">
          <mxGeometry x="207.5" y="272.5" width="35" height="25" as="geometry" />
        </mxCell>
        <mxCell id="YajR3gbY2ObetSgleA5Y-88" value="" style="verticalLabelPosition=bottom;shadow=0;dashed=0;align=center;html=1;verticalAlign=top;shape=mxgraph.electrical.logic_gates.logic_gate;operation=xor;negating=1;negSize=0.15;" vertex="1" parent="1">
          <mxGeometry x="275" y="295" width="40" height="20" as="geometry" />
        </mxCell>
        <mxCell id="YajR3gbY2ObetSgleA5Y-89" value="A" style="text;html=1;align=center;verticalAlign=middle;resizable=0;points=[];autosize=1;strokeColor=none;fillColor=none;" vertex="1" parent="1">
          <mxGeometry x="180" y="225" width="30" height="30" as="geometry" />
        </mxCell>
        <mxCell id="YajR3gbY2ObetSgleA5Y-90" value="B" style="text;html=1;align=center;verticalAlign=middle;resizable=0;points=[];autosize=1;strokeColor=none;fillColor=none;" vertex="1" parent="1">
          <mxGeometry x="180" y="235" width="30" height="30" as="geometry" />
        </mxCell>
        <mxCell id="YajR3gbY2ObetSgleA5Y-91" value="" style="endArrow=none;html=1;rounded=0;entryX=1;entryY=0.5;entryDx=0;entryDy=0;entryPerimeter=0;exitX=-0.027;exitY=0.534;exitDx=0;exitDy=0;exitPerimeter=0;" edge="1" parent="1" source="YajR3gbY2ObetSgleA5Y-22" target="YajR3gbY2ObetSgleA5Y-85">
          <mxGeometry width="50" height="50" relative="1" as="geometry">
            <mxPoint x="270" y="300" as="sourcePoint" />
            <mxPoint x="320" y="250" as="targetPoint" />
          </mxGeometry>
        </mxCell>
        <mxCell id="YajR3gbY2ObetSgleA5Y-92" value="B" style="text;html=1;align=center;verticalAlign=middle;resizable=0;points=[];autosize=1;strokeColor=none;fillColor=none;" vertex="1" parent="1">
          <mxGeometry x="250" y="260" width="30" height="30" as="geometry" />
        </mxCell>
        <mxCell id="YajR3gbY2ObetSgleA5Y-93" value="A" style="text;html=1;align=center;verticalAlign=middle;resizable=0;points=[];autosize=1;strokeColor=none;fillColor=none;" vertex="1" parent="1">
          <mxGeometry x="250" y="245" width="30" height="30" as="geometry" />
        </mxCell>
        <mxCell id="YajR3gbY2ObetSgleA5Y-94" value="" style="endArrow=none;html=1;rounded=0;exitX=1;exitY=0.5;exitDx=0;exitDy=0;exitPerimeter=0;entryX=0;entryY=0.498;entryDx=0;entryDy=0;entryPerimeter=0;" edge="1" parent="1" source="YajR3gbY2ObetSgleA5Y-86" target="YajR3gbY2ObetSgleA5Y-23">
          <mxGeometry width="50" height="50" relative="1" as="geometry">
            <mxPoint x="350" y="320" as="sourcePoint" />
            <mxPoint x="400" y="270" as="targetPoint" />
          </mxGeometry>
        </mxCell>
        <mxCell id="YajR3gbY2ObetSgleA5Y-95" value="" style="endArrow=none;html=1;rounded=0;entryX=-0.028;entryY=0.478;entryDx=0;entryDy=0;entryPerimeter=0;exitX=1;exitY=0.5;exitDx=0;exitDy=0;exitPerimeter=0;" edge="1" parent="1" source="YajR3gbY2ObetSgleA5Y-87" target="YajR3gbY2ObetSgleA5Y-24">
          <mxGeometry width="50" height="50" relative="1" as="geometry">
            <mxPoint x="370" y="330" as="sourcePoint" />
            <mxPoint x="420" y="280" as="targetPoint" />
          </mxGeometry>
        </mxCell>
        <mxCell id="YajR3gbY2ObetSgleA5Y-96" value="" style="endArrow=none;html=1;rounded=0;entryX=0.014;entryY=0.483;entryDx=0;entryDy=0;entryPerimeter=0;exitX=1;exitY=0.5;exitDx=0;exitDy=0;exitPerimeter=0;" edge="1" parent="1" source="YajR3gbY2ObetSgleA5Y-88" target="YajR3gbY2ObetSgleA5Y-25">
          <mxGeometry width="50" height="50" relative="1" as="geometry">
            <mxPoint x="330" y="350" as="sourcePoint" />
            <mxPoint x="380" y="300" as="targetPoint" />
          </mxGeometry>
        </mxCell>
        <mxCell id="YajR3gbY2ObetSgleA5Y-97" value="A" style="text;html=1;align=center;verticalAlign=middle;resizable=0;points=[];autosize=1;strokeColor=none;fillColor=none;" vertex="1" parent="1">
          <mxGeometry x="180" y="265" width="30" height="30" as="geometry" />
        </mxCell>
        <mxCell id="YajR3gbY2ObetSgleA5Y-98" value="A" style="text;html=1;align=center;verticalAlign=middle;resizable=0;points=[];autosize=1;strokeColor=none;fillColor=none;" vertex="1" parent="1">
          <mxGeometry x="250" y="285" width="30" height="30" as="geometry" />
        </mxCell>
        <mxCell id="YajR3gbY2ObetSgleA5Y-99" value="B" style="text;html=1;align=center;verticalAlign=middle;resizable=0;points=[];autosize=1;strokeColor=none;fillColor=none;" vertex="1" parent="1">
          <mxGeometry x="180" y="280" width="30" height="30" as="geometry" />
        </mxCell>
        <mxCell id="YajR3gbY2ObetSgleA5Y-100" value="B" style="text;html=1;align=center;verticalAlign=middle;resizable=0;points=[];autosize=1;strokeColor=none;fillColor=none;" vertex="1" parent="1">
          <mxGeometry x="250" y="295" width="30" height="30" as="geometry" />
        </mxCell>
        <mxCell id="YajR3gbY2ObetSgleA5Y-101" value="&lt;font style=&quot;font-size: 8px;&quot;&gt;Comparator&lt;/font&gt;" style="rounded=0;whiteSpace=wrap;html=1;" vertex="1" parent="1">
          <mxGeometry x="90" y="305" width="80" height="80" as="geometry" />
        </mxCell>
        <mxCell id="YajR3gbY2ObetSgleA5Y-102" value="&lt;font style=&quot;font-size: 7px;&quot;&gt;A&amp;gt;B&lt;/font&gt;" style="text;html=1;align=center;verticalAlign=middle;resizable=0;points=[];autosize=1;strokeColor=none;fillColor=none;" vertex="1" parent="1">
          <mxGeometry x="140" y="330" width="40" height="30" as="geometry" />
        </mxCell>
        <mxCell id="YajR3gbY2ObetSgleA5Y-104" value="&lt;font style=&quot;font-size: 7px;&quot;&gt;A&amp;lt;B&lt;/font&gt;" style="text;html=1;align=center;verticalAlign=middle;resizable=0;points=[];autosize=1;strokeColor=none;fillColor=none;" vertex="1" parent="1">
          <mxGeometry x="140" y="350" width="40" height="30" as="geometry" />
        </mxCell>
        <mxCell id="YajR3gbY2ObetSgleA5Y-105" value="A" style="text;html=1;align=center;verticalAlign=middle;resizable=0;points=[];autosize=1;strokeColor=none;fillColor=none;" vertex="1" parent="1">
          <mxGeometry x="50" y="315" width="30" height="30" as="geometry" />
        </mxCell>
        <mxCell id="YajR3gbY2ObetSgleA5Y-106" value="B" style="text;html=1;align=center;verticalAlign=middle;resizable=0;points=[];autosize=1;strokeColor=none;fillColor=none;" vertex="1" parent="1">
          <mxGeometry x="50" y="345" width="30" height="30" as="geometry" />
        </mxCell>
        <mxCell id="YajR3gbY2ObetSgleA5Y-107" value="" style="endArrow=none;html=1;rounded=0;" edge="1" parent="1" source="YajR3gbY2ObetSgleA5Y-105">
          <mxGeometry width="50" height="50" relative="1" as="geometry">
            <mxPoint x="40" y="380" as="sourcePoint" />
            <mxPoint x="90" y="330" as="targetPoint" />
          </mxGeometry>
        </mxCell>
        <mxCell id="YajR3gbY2ObetSgleA5Y-109" value="" style="endArrow=none;html=1;rounded=0;exitX=1.013;exitY=0.511;exitDx=0;exitDy=0;exitPerimeter=0;" edge="1" parent="1" source="YajR3gbY2ObetSgleA5Y-106">
          <mxGeometry width="50" height="50" relative="1" as="geometry">
            <mxPoint x="40" y="410" as="sourcePoint" />
            <mxPoint x="90" y="360" as="targetPoint" />
          </mxGeometry>
        </mxCell>
        <mxCell id="YajR3gbY2ObetSgleA5Y-110" value="" style="endArrow=none;html=1;rounded=0;exitX=0;exitY=0.616;exitDx=0;exitDy=0;exitPerimeter=0;" edge="1" parent="1" source="YajR3gbY2ObetSgleA5Y-1">
          <mxGeometry width="50" height="50" relative="1" as="geometry">
            <mxPoint x="320" y="320" as="sourcePoint" />
            <mxPoint x="170" y="325" as="targetPoint" />
          </mxGeometry>
        </mxCell>
        <mxCell id="YajR3gbY2ObetSgleA5Y-115" value="" style="endArrow=none;html=1;rounded=0;entryX=1.028;entryY=0.631;entryDx=0;entryDy=0;entryPerimeter=0;exitX=-0.001;exitY=0.672;exitDx=0;exitDy=0;exitPerimeter=0;" edge="1" parent="1" source="YajR3gbY2ObetSgleA5Y-1">
          <mxGeometry width="50" height="50" relative="1" as="geometry">
            <mxPoint x="419" y="345.5" as="sourcePoint" />
            <mxPoint x="170" y="344.5" as="targetPoint" />
          </mxGeometry>
        </mxCell>
        <mxCell id="YajR3gbY2ObetSgleA5Y-116" value="" style="endArrow=none;html=1;rounded=0;entryX=1;entryY=0.75;entryDx=0;entryDy=0;" edge="1" parent="1" target="YajR3gbY2ObetSgleA5Y-101">
          <mxGeometry width="50" height="50" relative="1" as="geometry">
            <mxPoint x="425" y="365.5" as="sourcePoint" />
            <mxPoint x="176" y="364.5" as="targetPoint" />
          </mxGeometry>
        </mxCell>
        <mxCell id="YajR3gbY2ObetSgleA5Y-117" value="&lt;font style=&quot;font-size: 7px;&quot;&gt;A=B&lt;/font&gt;" style="text;html=1;align=center;verticalAlign=middle;resizable=0;points=[];autosize=1;strokeColor=none;fillColor=none;" vertex="1" parent="1">
          <mxGeometry x="140" y="310" width="40" height="30" as="geometry" />
        </mxCell>
        <mxCell id="YajR3gbY2ObetSgleA5Y-119" value="Shift right" style="rounded=0;whiteSpace=wrap;html=1;" vertex="1" parent="1">
          <mxGeometry x="295" y="370" width="40" height="30" as="geometry" />
        </mxCell>
        <mxCell id="YajR3gbY2ObetSgleA5Y-120" value="Shift left" style="rounded=0;whiteSpace=wrap;html=1;" vertex="1" parent="1">
          <mxGeometry x="295" y="410" width="40" height="30" as="geometry" />
        </mxCell>
        <mxCell id="YajR3gbY2ObetSgleA5Y-121" value="A" style="text;html=1;align=center;verticalAlign=middle;resizable=0;points=[];autosize=1;strokeColor=none;fillColor=none;" vertex="1" parent="1">
          <mxGeometry x="250" y="370" width="30" height="30" as="geometry" />
        </mxCell>
        <mxCell id="YajR3gbY2ObetSgleA5Y-122" value="A" style="text;html=1;align=center;verticalAlign=middle;resizable=0;points=[];autosize=1;strokeColor=none;fillColor=none;" vertex="1" parent="1">
          <mxGeometry x="250" y="410" width="30" height="30" as="geometry" />
        </mxCell>
        <mxCell id="YajR3gbY2ObetSgleA5Y-123" value="" style="endArrow=none;html=1;rounded=0;entryX=0.002;entryY=0.787;entryDx=0;entryDy=0;entryPerimeter=0;exitX=1;exitY=0.5;exitDx=0;exitDy=0;" edge="1" parent="1" source="YajR3gbY2ObetSgleA5Y-119" target="YajR3gbY2ObetSgleA5Y-1">
          <mxGeometry width="50" height="50" relative="1" as="geometry">
            <mxPoint x="370" y="440" as="sourcePoint" />
            <mxPoint x="420" y="390" as="targetPoint" />
          </mxGeometry>
        </mxCell>
        <mxCell id="YajR3gbY2ObetSgleA5Y-124" value="" style="endArrow=none;html=1;rounded=0;entryX=0.002;entryY=0.838;entryDx=0;entryDy=0;entryPerimeter=0;exitX=1;exitY=0.5;exitDx=0;exitDy=0;" edge="1" parent="1" target="YajR3gbY2ObetSgleA5Y-1">
          <mxGeometry width="50" height="50" relative="1" as="geometry">
            <mxPoint x="335" y="420" as="sourcePoint" />
            <mxPoint x="425" y="420" as="targetPoint" />
            <Array as="points">
              <mxPoint x="360" y="420" />
              <mxPoint x="360" y="403" />
            </Array>
          </mxGeometry>
        </mxCell>
        <mxCell id="YajR3gbY2ObetSgleA5Y-125" value="" style="endArrow=none;html=1;rounded=0;entryX=0;entryY=0.5;entryDx=0;entryDy=0;" edge="1" parent="1" source="YajR3gbY2ObetSgleA5Y-121" target="YajR3gbY2ObetSgleA5Y-119">
          <mxGeometry width="50" height="50" relative="1" as="geometry">
            <mxPoint x="400" y="390" as="sourcePoint" />
            <mxPoint x="450" y="340" as="targetPoint" />
          </mxGeometry>
        </mxCell>
        <mxCell id="YajR3gbY2ObetSgleA5Y-126" value="" style="endArrow=none;html=1;rounded=0;entryX=0;entryY=0.5;entryDx=0;entryDy=0;" edge="1" parent="1">
          <mxGeometry width="50" height="50" relative="1" as="geometry">
            <mxPoint x="280" y="424.83" as="sourcePoint" />
            <mxPoint x="295" y="424.83" as="targetPoint" />
          </mxGeometry>
        </mxCell>
        <mxCell id="YajR3gbY2ObetSgleA5Y-127" value="&lt;b&gt;&lt;font style=&quot;font-size: 15px;&quot;&gt;Decoder 4to16&lt;/font&gt;&lt;/b&gt;" style="rounded=0;whiteSpace=wrap;html=1;fillColor=#f5f5f5;fontColor=#333333;strokeColor=#666666;" vertex="1" parent="1">
          <mxGeometry x="440" y="560" width="160" height="210" as="geometry" />
        </mxCell>
        <mxCell id="YajR3gbY2ObetSgleA5Y-128" value="" style="endArrow=none;html=1;rounded=0;" edge="1" parent="1">
          <mxGeometry width="50" height="50" relative="1" as="geometry">
            <mxPoint x="390" y="600" as="sourcePoint" />
            <mxPoint x="440" y="600" as="targetPoint" />
          </mxGeometry>
        </mxCell>
        <mxCell id="YajR3gbY2ObetSgleA5Y-129" value="" style="endArrow=none;html=1;rounded=0;" edge="1" parent="1">
          <mxGeometry width="50" height="50" relative="1" as="geometry">
            <mxPoint x="390" y="640" as="sourcePoint" />
            <mxPoint x="440" y="640" as="targetPoint" />
          </mxGeometry>
        </mxCell>
        <mxCell id="YajR3gbY2ObetSgleA5Y-130" value="" style="endArrow=none;html=1;rounded=0;" edge="1" parent="1">
          <mxGeometry width="50" height="50" relative="1" as="geometry">
            <mxPoint x="390" y="680" as="sourcePoint" />
            <mxPoint x="440" y="680" as="targetPoint" />
          </mxGeometry>
        </mxCell>
        <mxCell id="YajR3gbY2ObetSgleA5Y-131" value="" style="endArrow=none;html=1;rounded=0;" edge="1" parent="1">
          <mxGeometry width="50" height="50" relative="1" as="geometry">
            <mxPoint x="390" y="720" as="sourcePoint" />
            <mxPoint x="440" y="720" as="targetPoint" />
          </mxGeometry>
        </mxCell>
        <mxCell id="YajR3gbY2ObetSgleA5Y-132" value="" style="endArrow=none;html=1;rounded=0;" edge="1" parent="1">
          <mxGeometry width="50" height="50" relative="1" as="geometry">
            <mxPoint x="600" y="580" as="sourcePoint" />
            <mxPoint x="650" y="580" as="targetPoint" />
          </mxGeometry>
        </mxCell>
        <mxCell id="YajR3gbY2ObetSgleA5Y-133" value="" style="endArrow=none;html=1;rounded=0;" edge="1" parent="1">
          <mxGeometry width="50" height="50" relative="1" as="geometry">
            <mxPoint x="600" y="630" as="sourcePoint" />
            <mxPoint x="650" y="630" as="targetPoint" />
          </mxGeometry>
        </mxCell>
        <mxCell id="YajR3gbY2ObetSgleA5Y-134" value="" style="endArrow=none;html=1;rounded=0;" edge="1" parent="1">
          <mxGeometry width="50" height="50" relative="1" as="geometry">
            <mxPoint x="600" y="690" as="sourcePoint" />
            <mxPoint x="650" y="690" as="targetPoint" />
          </mxGeometry>
        </mxCell>
        <mxCell id="YajR3gbY2ObetSgleA5Y-135" value="" style="endArrow=none;html=1;rounded=0;" edge="1" parent="1">
          <mxGeometry width="50" height="50" relative="1" as="geometry">
            <mxPoint x="600" y="740" as="sourcePoint" />
            <mxPoint x="650" y="740" as="targetPoint" />
          </mxGeometry>
        </mxCell>
        <mxCell id="YajR3gbY2ObetSgleA5Y-136" value="&lt;b&gt;ALU_FUN [0]&lt;/b&gt;" style="text;html=1;align=center;verticalAlign=middle;resizable=0;points=[];autosize=1;strokeColor=none;fillColor=none;" vertex="1" parent="1">
          <mxGeometry x="285" y="580" width="100" height="30" as="geometry" />
        </mxCell>
        <mxCell id="YajR3gbY2ObetSgleA5Y-137" value="&lt;b&gt;ALU_FUN [1]&lt;/b&gt;" style="text;html=1;align=center;verticalAlign=middle;resizable=0;points=[];autosize=1;strokeColor=none;fillColor=none;" vertex="1" parent="1">
          <mxGeometry x="285" y="620" width="100" height="30" as="geometry" />
        </mxCell>
        <mxCell id="YajR3gbY2ObetSgleA5Y-138" value="&lt;b&gt;ALU_FUN [2]&lt;/b&gt;" style="text;html=1;align=center;verticalAlign=middle;resizable=0;points=[];autosize=1;strokeColor=none;fillColor=none;" vertex="1" parent="1">
          <mxGeometry x="285" y="660" width="100" height="30" as="geometry" />
        </mxCell>
        <mxCell id="YajR3gbY2ObetSgleA5Y-139" value="&lt;b&gt;ALU_FUN [3]&lt;/b&gt;" style="text;html=1;align=center;verticalAlign=middle;resizable=0;points=[];autosize=1;strokeColor=none;fillColor=none;" vertex="1" parent="1">
          <mxGeometry x="285" y="700" width="100" height="30" as="geometry" />
        </mxCell>
        <mxCell id="YajR3gbY2ObetSgleA5Y-140" value="&lt;font style=&quot;font-size: 10px;&quot;&gt;&lt;b&gt;Arith_Flag&lt;/b&gt;&lt;/font&gt;" style="text;html=1;align=center;verticalAlign=middle;resizable=0;points=[];autosize=1;strokeColor=none;fillColor=none;" vertex="1" parent="1">
          <mxGeometry x="650" y="560" width="70" height="30" as="geometry" />
        </mxCell>
        <mxCell id="YajR3gbY2ObetSgleA5Y-141" value="&lt;font style=&quot;font-size: 10px;&quot;&gt;&lt;b&gt;Logic_Flag&lt;/b&gt;&lt;/font&gt;" style="text;html=1;align=center;verticalAlign=middle;resizable=0;points=[];autosize=1;strokeColor=none;fillColor=none;" vertex="1" parent="1">
          <mxGeometry x="645" y="610" width="80" height="30" as="geometry" />
        </mxCell>
        <mxCell id="YajR3gbY2ObetSgleA5Y-142" value="&lt;font style=&quot;font-size: 10px;&quot;&gt;&lt;b&gt;CMP_Flag&lt;/b&gt;&lt;/font&gt;" style="text;html=1;align=center;verticalAlign=middle;resizable=0;points=[];autosize=1;strokeColor=none;fillColor=none;" vertex="1" parent="1">
          <mxGeometry x="650" y="670" width="70" height="30" as="geometry" />
        </mxCell>
        <mxCell id="YajR3gbY2ObetSgleA5Y-143" value="&lt;font style=&quot;font-size: 10px;&quot;&gt;&lt;b&gt;Shift_Flag&lt;/b&gt;&lt;/font&gt;" style="text;html=1;align=center;verticalAlign=middle;resizable=0;points=[];autosize=1;strokeColor=none;fillColor=none;" vertex="1" parent="1">
          <mxGeometry x="650" y="720" width="70" height="30" as="geometry" />
        </mxCell>
        <mxCell id="YajR3gbY2ObetSgleA5Y-144" value="&lt;b&gt;[3:0]&lt;/b&gt;" style="text;html=1;align=center;verticalAlign=middle;resizable=0;points=[];autosize=1;strokeColor=none;fillColor=none;" vertex="1" parent="1">
          <mxGeometry x="550" y="560" width="50" height="30" as="geometry" />
        </mxCell>
        <mxCell id="YajR3gbY2ObetSgleA5Y-145" value="&lt;b&gt;[9:4]&lt;/b&gt;" style="text;html=1;align=center;verticalAlign=middle;resizable=0;points=[];autosize=1;strokeColor=none;fillColor=none;" vertex="1" parent="1">
          <mxGeometry x="550" y="610" width="50" height="30" as="geometry" />
        </mxCell>
        <mxCell id="YajR3gbY2ObetSgleA5Y-146" value="&lt;b&gt;[12:10]&lt;/b&gt;" style="text;html=1;align=center;verticalAlign=middle;resizable=0;points=[];autosize=1;strokeColor=none;fillColor=none;" vertex="1" parent="1">
          <mxGeometry x="545" y="680" width="60" height="30" as="geometry" />
        </mxCell>
        <mxCell id="YajR3gbY2ObetSgleA5Y-147" value="&lt;b&gt;[14:13]&lt;/b&gt;" style="text;html=1;align=center;verticalAlign=middle;resizable=0;points=[];autosize=1;strokeColor=none;fillColor=none;" vertex="1" parent="1">
          <mxGeometry x="545" y="730" width="60" height="30" as="geometry" />
        </mxCell>
      </root>
    </mxGraphModel>
  </diagram>
</mxfile>
